<?xml version="1.0" standalone="no"?>
 <!DOCTYPE svg PUBLIC "-//W3C//DTD SVG 1.1//EN" 
 "http://www.w3.org/Graphics/SVG/1.1/DTD/svg11.dtd"> 
<svg
  xmlns:svg="http://www.w3.org/2000/svg"
  xmlns="http://www.w3.org/2000/svg"
  xmlns:xlink="http://www.w3.org/1999/xlink"
  version="1.1"
  width="6.228080cm" height="2.801620cm" viewBox="0 0 24520 11030">
<title>SVG Picture created as Blinkbutton1616-F_Cu.svg date 2021/01/15 01:40:30 </title>
  <desc>Picture generated by PCBNEW </desc>
<g style="fill:#000000; fill-opacity:1;stroke:#000000; stroke-opacity:1;
stroke-linecap:round; stroke-linejoin:round;"
 transform="translate(0 0) scale(1 1)">
</g>
<g style="fill:#000000; fill-opacity:0.0; 
stroke:#000000; stroke-width:-0.000393701; stroke-opacity:1; 
stroke-linecap:round; stroke-linejoin:round;">
<g >
</g>
<g style="fill:#000000; fill-opacity:0.0; 
stroke:#000000; stroke-width:0; stroke-opacity:1; 
stroke-linecap:round; stroke-linejoin:round;">
</g>
<g style="fill:#000000; fill-opacity:1.0; 
stroke:#000000; stroke-width:0; stroke-opacity:1; 
stroke-linecap:round; stroke-linejoin:round;">
<path style="fill:#000000; fill-opacity:1.0; 
stroke:#000000; stroke-width:0; stroke-opacity:1; 
stroke-linecap:round; stroke-linejoin:round;fill-rule:evenodd;"
d="M 14186,1785.72
14191.8,1786.57
14197.4,1787.98
14202.9,1789.93
14208.1,1792.41
14213.1,1795.39
14217.7,1798.84
14222,1802.73
14225.9,1807.02
14229.4,1811.68
14232.3,1816.65
14234.8,1821.89
14236.8,1827.35
14238.2,1832.97
14239,1838.7
14239.3,1844.49
14239.3,2533.46
14239,2539.25
14238.2,2544.99
14236.8,2550.61
14234.8,2556.06
14232.3,2561.3
14229.4,2566.27
14225.9,2570.93
14222,2575.22
14217.7,2579.12
14213.1,2582.57
14208.1,2585.55
14202.9,2588.02
14197.4,2589.98
14191.8,2591.39
14186,2592.24
14180.3,2592.52
14062.1,2592.52
14056.4,2592.24
14050.6,2591.39
14045,2589.98
14039.5,2588.02
14034.3,2585.55
14029.3,2582.57
14024.7,2579.12
14020.4,2575.22
14016.5,2570.93
14013,2566.27
14010.1,2561.3
14007.6,2556.06
14005.6,2550.61
14004.2,2544.99
14003.4,2539.25
14003.1,2533.46
14003.1,1844.49
14003.4,1838.7
14004.2,1832.97
14005.6,1827.35
14007.6,1821.89
14010.1,1816.65
14013,1811.68
14016.5,1807.02
14020.4,1802.73
14024.7,1798.84
14029.3,1795.39
14034.3,1792.41
14039.5,1789.93
14045,1787.98
14050.6,1786.57
14056.4,1785.72
14062.1,1785.43
14180.3,1785.43
Z" /> 
<path style="fill:#000000; fill-opacity:1.0; 
stroke:#000000; stroke-width:0; stroke-opacity:1; 
stroke-linecap:round; stroke-linejoin:round;fill-rule:evenodd;"
d="M 14686,1785.72
14691.8,1786.57
14697.4,1787.98
14702.9,1789.93
14708.1,1792.41
14713.1,1795.39
14717.7,1798.84
14722,1802.73
14725.9,1807.02
14729.4,1811.68
14732.3,1816.65
14734.8,1821.89
14736.8,1827.35
14738.2,1832.97
14739,1838.7
14739.3,1844.49
14739.3,2533.46
14739,2539.25
14738.2,2544.99
14736.8,2550.61
14734.8,2556.06
14732.3,2561.3
14729.4,2566.27
14725.9,2570.93
14722,2575.22
14717.7,2579.12
14713.1,2582.57
14708.1,2585.55
14702.9,2588.02
14697.4,2589.98
14691.8,2591.39
14686,2592.24
14680.3,2592.52
14562.1,2592.52
14556.4,2592.24
14550.6,2591.39
14545,2589.98
14539.5,2588.02
14534.3,2585.55
14529.3,2582.57
14524.7,2579.12
14520.4,2575.22
14516.5,2570.93
14513,2566.27
14510.1,2561.3
14507.6,2556.06
14505.6,2550.61
14504.2,2544.99
14503.4,2539.25
14503.1,2533.46
14503.1,1844.49
14503.4,1838.7
14504.2,1832.97
14505.6,1827.35
14507.6,1821.89
14510.1,1816.65
14513,1811.68
14516.5,1807.02
14520.4,1802.73
14524.7,1798.84
14529.3,1795.39
14534.3,1792.41
14539.5,1789.93
14545,1787.98
14550.6,1786.57
14556.4,1785.72
14562.1,1785.43
14680.3,1785.43
Z" /> 
<path style="fill:#000000; fill-opacity:1.0; 
stroke:#000000; stroke-width:0; stroke-opacity:1; 
stroke-linecap:round; stroke-linejoin:round;fill-rule:evenodd;"
d="M 15186,1785.72
15191.8,1786.57
15197.4,1787.98
15202.9,1789.93
15208.1,1792.41
15213.1,1795.39
15217.7,1798.84
15222,1802.73
15225.9,1807.02
15229.4,1811.68
15232.3,1816.65
15234.8,1821.89
15236.8,1827.35
15238.2,1832.97
15239,1838.7
15239.3,1844.49
15239.3,2533.46
15239,2539.25
15238.2,2544.99
15236.8,2550.61
15234.8,2556.06
15232.3,2561.3
15229.4,2566.27
15225.9,2570.93
15222,2575.22
15217.7,2579.12
15213.1,2582.57
15208.1,2585.55
15202.9,2588.02
15197.4,2589.98
15191.8,2591.39
15186,2592.24
15180.3,2592.52
15062.1,2592.52
15056.4,2592.24
15050.6,2591.39
15045,2589.98
15039.5,2588.02
15034.3,2585.55
15029.3,2582.57
15024.7,2579.12
15020.4,2575.22
15016.5,2570.93
15013,2566.27
15010.1,2561.3
15007.6,2556.06
15005.6,2550.61
15004.2,2544.99
15003.4,2539.25
15003.1,2533.46
15003.1,1844.49
15003.4,1838.7
15004.2,1832.97
15005.6,1827.35
15007.6,1821.89
15010.1,1816.65
15013,1811.68
15016.5,1807.02
15020.4,1802.73
15024.7,1798.84
15029.3,1795.39
15034.3,1792.41
15039.5,1789.93
15045,1787.98
15050.6,1786.57
15056.4,1785.72
15062.1,1785.43
15180.3,1785.43
Z" /> 
<path style="fill:#000000; fill-opacity:1.0; 
stroke:#000000; stroke-width:0; stroke-opacity:1; 
stroke-linecap:round; stroke-linejoin:round;fill-rule:evenodd;"
d="M 15686,1785.72
15691.8,1786.57
15697.4,1787.98
15702.9,1789.93
15708.1,1792.41
15713.1,1795.39
15717.7,1798.84
15722,1802.73
15725.9,1807.02
15729.4,1811.68
15732.3,1816.65
15734.8,1821.89
15736.8,1827.35
15738.2,1832.97
15739,1838.7
15739.3,1844.49
15739.3,2533.46
15739,2539.25
15738.2,2544.99
15736.8,2550.61
15734.8,2556.06
15732.3,2561.3
15729.4,2566.27
15725.9,2570.93
15722,2575.22
15717.7,2579.12
15713.1,2582.57
15708.1,2585.55
15702.9,2588.02
15697.4,2589.98
15691.8,2591.39
15686,2592.24
15680.3,2592.52
15562.1,2592.52
15556.4,2592.24
15550.6,2591.39
15545,2589.98
15539.5,2588.02
15534.3,2585.55
15529.3,2582.57
15524.7,2579.12
15520.4,2575.22
15516.5,2570.93
15513,2566.27
15510.1,2561.3
15507.6,2556.06
15505.6,2550.61
15504.2,2544.99
15503.4,2539.25
15503.1,2533.46
15503.1,1844.49
15503.4,1838.7
15504.2,1832.97
15505.6,1827.35
15507.6,1821.89
15510.1,1816.65
15513,1811.68
15516.5,1807.02
15520.4,1802.73
15524.7,1798.84
15529.3,1795.39
15534.3,1792.41
15539.5,1789.93
15545,1787.98
15550.6,1786.57
15556.4,1785.72
15562.1,1785.43
15680.3,1785.43
Z" /> 
<path style="fill:#000000; fill-opacity:1.0; 
stroke:#000000; stroke-width:0; stroke-opacity:1; 
stroke-linecap:round; stroke-linejoin:round;fill-rule:evenodd;"
d="M 16186,1785.72
16191.8,1786.57
16197.4,1787.98
16202.9,1789.93
16208.1,1792.41
16213.1,1795.39
16217.7,1798.84
16222,1802.73
16225.9,1807.02
16229.4,1811.68
16232.3,1816.65
16234.8,1821.89
16236.8,1827.35
16238.2,1832.97
16239,1838.7
16239.3,1844.49
16239.3,2533.46
16239,2539.25
16238.2,2544.99
16236.8,2550.61
16234.8,2556.06
16232.3,2561.3
16229.4,2566.27
16225.9,2570.93
16222,2575.22
16217.7,2579.12
16213.1,2582.57
16208.1,2585.55
16202.9,2588.02
16197.4,2589.98
16191.8,2591.39
16186,2592.24
16180.3,2592.52
16062.1,2592.52
16056.4,2592.24
16050.6,2591.39
16045,2589.98
16039.5,2588.02
16034.3,2585.55
16029.3,2582.57
16024.7,2579.12
16020.4,2575.22
16016.5,2570.93
16013,2566.27
16010.1,2561.3
16007.6,2556.06
16005.6,2550.61
16004.2,2544.99
16003.4,2539.25
16003.1,2533.46
16003.1,1844.49
16003.4,1838.7
16004.2,1832.97
16005.6,1827.35
16007.6,1821.89
16010.1,1816.65
16013,1811.68
16016.5,1807.02
16020.4,1802.73
16024.7,1798.84
16029.3,1795.39
16034.3,1792.41
16039.5,1789.93
16045,1787.98
16050.6,1786.57
16056.4,1785.72
16062.1,1785.43
16180.3,1785.43
Z" /> 
<path style="fill:#000000; fill-opacity:1.0; 
stroke:#000000; stroke-width:0; stroke-opacity:1; 
stroke-linecap:round; stroke-linejoin:round;fill-rule:evenodd;"
d="M 16686,1785.72
16691.8,1786.57
16697.4,1787.98
16702.9,1789.93
16708.1,1792.41
16713.1,1795.39
16717.7,1798.84
16722,1802.73
16725.9,1807.02
16729.4,1811.68
16732.3,1816.65
16734.8,1821.89
16736.8,1827.35
16738.2,1832.97
16739,1838.7
16739.3,1844.49
16739.3,2533.46
16739,2539.25
16738.2,2544.99
16736.8,2550.61
16734.8,2556.06
16732.3,2561.3
16729.4,2566.27
16725.9,2570.93
16722,2575.22
16717.7,2579.12
16713.1,2582.57
16708.1,2585.55
16702.9,2588.02
16697.4,2589.98
16691.8,2591.39
16686,2592.24
16680.3,2592.52
16562.1,2592.52
16556.4,2592.24
16550.6,2591.39
16545,2589.98
16539.5,2588.02
16534.3,2585.55
16529.3,2582.57
16524.7,2579.12
16520.4,2575.22
16516.5,2570.93
16513,2566.27
16510.1,2561.3
16507.6,2556.06
16505.6,2550.61
16504.2,2544.99
16503.4,2539.25
16503.1,2533.46
16503.1,1844.49
16503.4,1838.7
16504.2,1832.97
16505.6,1827.35
16507.6,1821.89
16510.1,1816.65
16513,1811.68
16516.5,1807.02
16520.4,1802.73
16524.7,1798.84
16529.3,1795.39
16534.3,1792.41
16539.5,1789.93
16545,1787.98
16550.6,1786.57
16556.4,1785.72
16562.1,1785.43
16680.3,1785.43
Z" /> 
<path style="fill:#000000; fill-opacity:1.0; 
stroke:#000000; stroke-width:0; stroke-opacity:1; 
stroke-linecap:round; stroke-linejoin:round;fill-rule:evenodd;"
d="M 17186,1785.72
17191.8,1786.57
17197.4,1787.98
17202.9,1789.93
17208.1,1792.41
17213.1,1795.39
17217.7,1798.84
17222,1802.73
17225.9,1807.02
17229.4,1811.68
17232.3,1816.65
17234.8,1821.89
17236.8,1827.35
17238.2,1832.97
17239,1838.7
17239.3,1844.49
17239.3,2533.46
17239,2539.25
17238.2,2544.99
17236.8,2550.61
17234.8,2556.06
17232.3,2561.3
17229.4,2566.27
17225.9,2570.93
17222,2575.22
17217.7,2579.12
17213.1,2582.57
17208.1,2585.55
17202.9,2588.02
17197.4,2589.98
17191.8,2591.39
17186,2592.24
17180.3,2592.52
17062.1,2592.52
17056.4,2592.24
17050.6,2591.39
17045,2589.98
17039.5,2588.02
17034.3,2585.55
17029.3,2582.57
17024.7,2579.12
17020.4,2575.22
17016.5,2570.93
17013,2566.27
17010.1,2561.3
17007.6,2556.06
17005.6,2550.61
17004.2,2544.99
17003.4,2539.25
17003.1,2533.46
17003.1,1844.49
17003.4,1838.7
17004.2,1832.97
17005.6,1827.35
17007.6,1821.89
17010.1,1816.65
17013,1811.68
17016.5,1807.02
17020.4,1802.73
17024.7,1798.84
17029.3,1795.39
17034.3,1792.41
17039.5,1789.93
17045,1787.98
17050.6,1786.57
17056.4,1785.72
17062.1,1785.43
17180.3,1785.43
Z" /> 
<path style="fill:#000000; fill-opacity:1.0; 
stroke:#000000; stroke-width:0; stroke-opacity:1; 
stroke-linecap:round; stroke-linejoin:round;fill-rule:evenodd;"
d="M 17686,1785.72
17691.8,1786.57
17697.4,1787.98
17702.9,1789.93
17708.1,1792.41
17713.1,1795.39
17717.7,1798.84
17722,1802.73
17725.9,1807.02
17729.4,1811.68
17732.3,1816.65
17734.8,1821.89
17736.8,1827.35
17738.2,1832.97
17739,1838.7
17739.3,1844.49
17739.3,2533.46
17739,2539.25
17738.2,2544.99
17736.8,2550.61
17734.8,2556.06
17732.3,2561.3
17729.4,2566.27
17725.9,2570.93
17722,2575.22
17717.7,2579.12
17713.1,2582.57
17708.1,2585.55
17702.9,2588.02
17697.4,2589.98
17691.8,2591.39
17686,2592.24
17680.3,2592.52
17562.1,2592.52
17556.4,2592.24
17550.6,2591.39
17545,2589.98
17539.5,2588.02
17534.3,2585.55
17529.3,2582.57
17524.7,2579.12
17520.4,2575.22
17516.5,2570.93
17513,2566.27
17510.1,2561.3
17507.6,2556.06
17505.6,2550.61
17504.2,2544.99
17503.4,2539.25
17503.1,2533.46
17503.1,1844.49
17503.4,1838.7
17504.2,1832.97
17505.6,1827.35
17507.6,1821.89
17510.1,1816.65
17513,1811.68
17516.5,1807.02
17520.4,1802.73
17524.7,1798.84
17529.3,1795.39
17534.3,1792.41
17539.5,1789.93
17545,1787.98
17550.6,1786.57
17556.4,1785.72
17562.1,1785.43
17680.3,1785.43
Z" /> 
<path style="fill:#000000; fill-opacity:1.0; 
stroke:#000000; stroke-width:0; stroke-opacity:1; 
stroke-linecap:round; stroke-linejoin:round;fill-rule:evenodd;"
d="M 18186,1785.72
18191.8,1786.57
18197.4,1787.98
18202.9,1789.93
18208.1,1792.41
18213.1,1795.39
18217.7,1798.84
18222,1802.73
18225.9,1807.02
18229.4,1811.68
18232.3,1816.65
18234.8,1821.89
18236.8,1827.35
18238.2,1832.97
18239,1838.7
18239.3,1844.49
18239.3,2533.46
18239,2539.25
18238.2,2544.99
18236.8,2550.61
18234.8,2556.06
18232.3,2561.3
18229.4,2566.27
18225.9,2570.93
18222,2575.22
18217.7,2579.12
18213.1,2582.57
18208.1,2585.55
18202.9,2588.02
18197.4,2589.98
18191.8,2591.39
18186,2592.24
18180.3,2592.52
18062.1,2592.52
18056.4,2592.24
18050.6,2591.39
18045,2589.98
18039.5,2588.02
18034.3,2585.55
18029.3,2582.57
18024.7,2579.12
18020.4,2575.22
18016.5,2570.93
18013,2566.27
18010.1,2561.3
18007.6,2556.06
18005.6,2550.61
18004.2,2544.99
18003.4,2539.25
18003.1,2533.46
18003.1,1844.49
18003.4,1838.7
18004.2,1832.97
18005.6,1827.35
18007.6,1821.89
18010.1,1816.65
18013,1811.68
18016.5,1807.02
18020.4,1802.73
18024.7,1798.84
18029.3,1795.39
18034.3,1792.41
18039.5,1789.93
18045,1787.98
18050.6,1786.57
18056.4,1785.72
18062.1,1785.43
18180.3,1785.43
Z" /> 
<path style="fill:#000000; fill-opacity:1.0; 
stroke:#000000; stroke-width:0; stroke-opacity:1; 
stroke-linecap:round; stroke-linejoin:round;fill-rule:evenodd;"
d="M 18686,1785.72
18691.8,1786.57
18697.4,1787.98
18702.9,1789.93
18708.1,1792.41
18713.1,1795.39
18717.7,1798.84
18722,1802.73
18725.9,1807.02
18729.4,1811.68
18732.3,1816.65
18734.8,1821.89
18736.8,1827.35
18738.2,1832.97
18739,1838.7
18739.3,1844.49
18739.3,2533.46
18739,2539.25
18738.2,2544.99
18736.8,2550.61
18734.8,2556.06
18732.3,2561.3
18729.4,2566.27
18725.9,2570.93
18722,2575.22
18717.7,2579.12
18713.1,2582.57
18708.1,2585.55
18702.9,2588.02
18697.4,2589.98
18691.8,2591.39
18686,2592.24
18680.3,2592.52
18562.1,2592.52
18556.4,2592.24
18550.6,2591.39
18545,2589.98
18539.5,2588.02
18534.3,2585.55
18529.3,2582.57
18524.7,2579.12
18520.4,2575.22
18516.5,2570.93
18513,2566.27
18510.1,2561.3
18507.6,2556.06
18505.6,2550.61
18504.2,2544.99
18503.4,2539.25
18503.1,2533.46
18503.1,1844.49
18503.4,1838.7
18504.2,1832.97
18505.6,1827.35
18507.6,1821.89
18510.1,1816.65
18513,1811.68
18516.5,1807.02
18520.4,1802.73
18524.7,1798.84
18529.3,1795.39
18534.3,1792.41
18539.5,1789.93
18545,1787.98
18550.6,1786.57
18556.4,1785.72
18562.1,1785.43
18680.3,1785.43
Z" /> 
<path style="fill:#000000; fill-opacity:1.0; 
stroke:#000000; stroke-width:0; stroke-opacity:1; 
stroke-linecap:round; stroke-linejoin:round;fill-rule:evenodd;"
d="M 18686,5447.14
18691.8,5447.99
18697.4,5449.39
18702.9,5451.35
18708.1,5453.82
18713.1,5456.8
18717.7,5460.26
18722,5464.15
18725.9,5468.44
18729.4,5473.1
18732.3,5478.07
18734.8,5483.31
18736.8,5488.76
18738.2,5494.38
18739,5500.12
18739.3,5505.91
18739.3,6194.88
18739,6200.67
18738.2,6206.4
18736.8,6212.03
18734.8,6217.48
18732.3,6222.72
18729.4,6227.69
18725.9,6232.35
18722,6236.64
18717.7,6240.53
18713.1,6243.98
18708.1,6246.96
18702.9,6249.44
18697.4,6251.39
18691.8,6252.8
18686,6253.65
18680.3,6253.94
18562.1,6253.94
18556.4,6253.65
18550.6,6252.8
18545,6251.39
18539.5,6249.44
18534.3,6246.96
18529.3,6243.98
18524.7,6240.53
18520.4,6236.64
18516.5,6232.35
18513,6227.69
18510.1,6222.72
18507.6,6217.48
18505.6,6212.03
18504.2,6206.4
18503.4,6200.67
18503.1,6194.88
18503.1,5505.91
18503.4,5500.12
18504.2,5494.38
18505.6,5488.76
18507.6,5483.31
18510.1,5478.07
18513,5473.1
18516.5,5468.44
18520.4,5464.15
18524.7,5460.26
18529.3,5456.8
18534.3,5453.82
18539.5,5451.35
18545,5449.39
18550.6,5447.99
18556.4,5447.14
18562.1,5446.85
18680.3,5446.85
Z" /> 
<path style="fill:#000000; fill-opacity:1.0; 
stroke:#000000; stroke-width:0; stroke-opacity:1; 
stroke-linecap:round; stroke-linejoin:round;fill-rule:evenodd;"
d="M 18186,5447.14
18191.8,5447.99
18197.4,5449.39
18202.9,5451.35
18208.1,5453.82
18213.1,5456.8
18217.7,5460.26
18222,5464.15
18225.9,5468.44
18229.4,5473.1
18232.3,5478.07
18234.8,5483.31
18236.8,5488.76
18238.2,5494.38
18239,5500.12
18239.3,5505.91
18239.3,6194.88
18239,6200.67
18238.2,6206.4
18236.8,6212.03
18234.8,6217.48
18232.3,6222.72
18229.4,6227.69
18225.9,6232.35
18222,6236.64
18217.7,6240.53
18213.1,6243.98
18208.1,6246.96
18202.9,6249.44
18197.4,6251.39
18191.8,6252.8
18186,6253.65
18180.3,6253.94
18062.1,6253.94
18056.4,6253.65
18050.6,6252.8
18045,6251.39
18039.5,6249.44
18034.3,6246.96
18029.3,6243.98
18024.7,6240.53
18020.4,6236.64
18016.5,6232.35
18013,6227.69
18010.1,6222.72
18007.6,6217.48
18005.6,6212.03
18004.2,6206.4
18003.4,6200.67
18003.1,6194.88
18003.1,5505.91
18003.4,5500.12
18004.2,5494.38
18005.6,5488.76
18007.6,5483.31
18010.1,5478.07
18013,5473.1
18016.5,5468.44
18020.4,5464.15
18024.7,5460.26
18029.3,5456.8
18034.3,5453.82
18039.5,5451.35
18045,5449.39
18050.6,5447.99
18056.4,5447.14
18062.1,5446.85
18180.3,5446.85
Z" /> 
<path style="fill:#000000; fill-opacity:1.0; 
stroke:#000000; stroke-width:0; stroke-opacity:1; 
stroke-linecap:round; stroke-linejoin:round;fill-rule:evenodd;"
d="M 17686,5447.14
17691.8,5447.99
17697.4,5449.39
17702.9,5451.35
17708.1,5453.82
17713.1,5456.8
17717.7,5460.26
17722,5464.15
17725.9,5468.44
17729.4,5473.1
17732.3,5478.07
17734.8,5483.31
17736.8,5488.76
17738.2,5494.38
17739,5500.12
17739.3,5505.91
17739.3,6194.88
17739,6200.67
17738.2,6206.4
17736.8,6212.03
17734.8,6217.48
17732.3,6222.72
17729.4,6227.69
17725.9,6232.35
17722,6236.64
17717.7,6240.53
17713.1,6243.98
17708.1,6246.96
17702.9,6249.44
17697.4,6251.39
17691.8,6252.8
17686,6253.65
17680.3,6253.94
17562.1,6253.94
17556.4,6253.65
17550.6,6252.8
17545,6251.39
17539.5,6249.44
17534.3,6246.96
17529.3,6243.98
17524.7,6240.53
17520.4,6236.64
17516.5,6232.35
17513,6227.69
17510.1,6222.72
17507.6,6217.48
17505.6,6212.03
17504.2,6206.4
17503.4,6200.67
17503.1,6194.88
17503.1,5505.91
17503.4,5500.12
17504.2,5494.38
17505.6,5488.76
17507.6,5483.31
17510.1,5478.07
17513,5473.1
17516.5,5468.44
17520.4,5464.15
17524.7,5460.26
17529.3,5456.8
17534.3,5453.82
17539.5,5451.35
17545,5449.39
17550.6,5447.99
17556.4,5447.14
17562.1,5446.85
17680.3,5446.85
Z" /> 
<path style="fill:#000000; fill-opacity:1.0; 
stroke:#000000; stroke-width:0; stroke-opacity:1; 
stroke-linecap:round; stroke-linejoin:round;fill-rule:evenodd;"
d="M 17186,5447.14
17191.8,5447.99
17197.4,5449.39
17202.9,5451.35
17208.1,5453.82
17213.1,5456.8
17217.7,5460.26
17222,5464.15
17225.9,5468.44
17229.4,5473.1
17232.3,5478.07
17234.8,5483.31
17236.8,5488.76
17238.2,5494.38
17239,5500.12
17239.3,5505.91
17239.3,6194.88
17239,6200.67
17238.2,6206.4
17236.8,6212.03
17234.8,6217.48
17232.3,6222.72
17229.4,6227.69
17225.9,6232.35
17222,6236.64
17217.7,6240.53
17213.1,6243.98
17208.1,6246.96
17202.9,6249.44
17197.4,6251.39
17191.8,6252.8
17186,6253.65
17180.3,6253.94
17062.1,6253.94
17056.4,6253.65
17050.6,6252.8
17045,6251.39
17039.5,6249.44
17034.3,6246.96
17029.3,6243.98
17024.7,6240.53
17020.4,6236.64
17016.5,6232.35
17013,6227.69
17010.1,6222.72
17007.6,6217.48
17005.6,6212.03
17004.2,6206.4
17003.4,6200.67
17003.1,6194.88
17003.1,5505.91
17003.4,5500.12
17004.2,5494.38
17005.6,5488.76
17007.6,5483.31
17010.1,5478.07
17013,5473.1
17016.5,5468.44
17020.4,5464.15
17024.7,5460.26
17029.3,5456.8
17034.3,5453.82
17039.5,5451.35
17045,5449.39
17050.6,5447.99
17056.4,5447.14
17062.1,5446.85
17180.3,5446.85
Z" /> 
<path style="fill:#000000; fill-opacity:1.0; 
stroke:#000000; stroke-width:0; stroke-opacity:1; 
stroke-linecap:round; stroke-linejoin:round;fill-rule:evenodd;"
d="M 16686,5447.14
16691.8,5447.99
16697.4,5449.39
16702.9,5451.35
16708.1,5453.82
16713.1,5456.8
16717.7,5460.26
16722,5464.15
16725.9,5468.44
16729.4,5473.1
16732.3,5478.07
16734.8,5483.31
16736.8,5488.76
16738.2,5494.38
16739,5500.12
16739.3,5505.91
16739.3,6194.88
16739,6200.67
16738.2,6206.4
16736.8,6212.03
16734.8,6217.48
16732.3,6222.72
16729.4,6227.69
16725.9,6232.35
16722,6236.64
16717.7,6240.53
16713.1,6243.98
16708.1,6246.96
16702.9,6249.44
16697.4,6251.39
16691.8,6252.8
16686,6253.65
16680.3,6253.94
16562.1,6253.94
16556.4,6253.65
16550.6,6252.8
16545,6251.39
16539.5,6249.44
16534.3,6246.96
16529.3,6243.98
16524.7,6240.53
16520.4,6236.64
16516.5,6232.35
16513,6227.69
16510.1,6222.72
16507.6,6217.48
16505.6,6212.03
16504.2,6206.4
16503.4,6200.67
16503.1,6194.88
16503.1,5505.91
16503.4,5500.12
16504.2,5494.38
16505.6,5488.76
16507.6,5483.31
16510.1,5478.07
16513,5473.1
16516.5,5468.44
16520.4,5464.15
16524.7,5460.26
16529.3,5456.8
16534.3,5453.82
16539.5,5451.35
16545,5449.39
16550.6,5447.99
16556.4,5447.14
16562.1,5446.85
16680.3,5446.85
Z" /> 
<path style="fill:#000000; fill-opacity:1.0; 
stroke:#000000; stroke-width:0; stroke-opacity:1; 
stroke-linecap:round; stroke-linejoin:round;fill-rule:evenodd;"
d="M 16186,5447.14
16191.8,5447.99
16197.4,5449.39
16202.9,5451.35
16208.1,5453.82
16213.1,5456.8
16217.7,5460.26
16222,5464.15
16225.9,5468.44
16229.4,5473.1
16232.3,5478.07
16234.8,5483.31
16236.8,5488.76
16238.2,5494.38
16239,5500.12
16239.3,5505.91
16239.3,6194.88
16239,6200.67
16238.2,6206.4
16236.8,6212.03
16234.8,6217.48
16232.3,6222.72
16229.4,6227.69
16225.9,6232.35
16222,6236.64
16217.7,6240.53
16213.1,6243.98
16208.1,6246.96
16202.9,6249.44
16197.4,6251.39
16191.8,6252.8
16186,6253.65
16180.3,6253.94
16062.1,6253.94
16056.4,6253.65
16050.6,6252.8
16045,6251.39
16039.5,6249.44
16034.3,6246.96
16029.3,6243.98
16024.7,6240.53
16020.4,6236.64
16016.5,6232.35
16013,6227.69
16010.1,6222.72
16007.6,6217.48
16005.6,6212.03
16004.2,6206.4
16003.4,6200.67
16003.1,6194.88
16003.1,5505.91
16003.4,5500.12
16004.2,5494.38
16005.6,5488.76
16007.6,5483.31
16010.1,5478.07
16013,5473.1
16016.5,5468.44
16020.4,5464.15
16024.7,5460.26
16029.3,5456.8
16034.3,5453.82
16039.5,5451.35
16045,5449.39
16050.6,5447.99
16056.4,5447.14
16062.1,5446.85
16180.3,5446.85
Z" /> 
<path style="fill:#000000; fill-opacity:1.0; 
stroke:#000000; stroke-width:0; stroke-opacity:1; 
stroke-linecap:round; stroke-linejoin:round;fill-rule:evenodd;"
d="M 15686,5447.14
15691.8,5447.99
15697.4,5449.39
15702.9,5451.35
15708.1,5453.82
15713.1,5456.8
15717.7,5460.26
15722,5464.15
15725.9,5468.44
15729.4,5473.1
15732.3,5478.07
15734.8,5483.31
15736.8,5488.76
15738.2,5494.38
15739,5500.12
15739.3,5505.91
15739.3,6194.88
15739,6200.67
15738.2,6206.4
15736.8,6212.03
15734.8,6217.48
15732.3,6222.72
15729.4,6227.69
15725.9,6232.35
15722,6236.64
15717.7,6240.53
15713.1,6243.98
15708.1,6246.96
15702.9,6249.44
15697.4,6251.39
15691.8,6252.8
15686,6253.65
15680.3,6253.94
15562.1,6253.94
15556.4,6253.65
15550.6,6252.8
15545,6251.39
15539.5,6249.44
15534.3,6246.96
15529.3,6243.98
15524.7,6240.53
15520.4,6236.64
15516.5,6232.35
15513,6227.69
15510.1,6222.72
15507.6,6217.48
15505.6,6212.03
15504.2,6206.4
15503.4,6200.67
15503.1,6194.88
15503.1,5505.91
15503.4,5500.12
15504.2,5494.38
15505.6,5488.76
15507.6,5483.31
15510.1,5478.07
15513,5473.1
15516.5,5468.44
15520.4,5464.15
15524.7,5460.26
15529.3,5456.8
15534.3,5453.82
15539.5,5451.35
15545,5449.39
15550.6,5447.99
15556.4,5447.14
15562.1,5446.85
15680.3,5446.85
Z" /> 
<path style="fill:#000000; fill-opacity:1.0; 
stroke:#000000; stroke-width:0; stroke-opacity:1; 
stroke-linecap:round; stroke-linejoin:round;fill-rule:evenodd;"
d="M 15186,5447.14
15191.8,5447.99
15197.4,5449.39
15202.9,5451.35
15208.1,5453.82
15213.1,5456.8
15217.7,5460.26
15222,5464.15
15225.9,5468.44
15229.4,5473.1
15232.3,5478.07
15234.8,5483.31
15236.8,5488.76
15238.2,5494.38
15239,5500.12
15239.3,5505.91
15239.3,6194.88
15239,6200.67
15238.2,6206.4
15236.8,6212.03
15234.8,6217.48
15232.3,6222.72
15229.4,6227.69
15225.9,6232.35
15222,6236.64
15217.7,6240.53
15213.1,6243.98
15208.1,6246.96
15202.9,6249.44
15197.4,6251.39
15191.8,6252.8
15186,6253.65
15180.3,6253.94
15062.1,6253.94
15056.4,6253.65
15050.6,6252.8
15045,6251.39
15039.5,6249.44
15034.3,6246.96
15029.3,6243.98
15024.7,6240.53
15020.4,6236.64
15016.5,6232.35
15013,6227.69
15010.1,6222.72
15007.6,6217.48
15005.6,6212.03
15004.2,6206.4
15003.4,6200.67
15003.1,6194.88
15003.1,5505.91
15003.4,5500.12
15004.2,5494.38
15005.6,5488.76
15007.6,5483.31
15010.1,5478.07
15013,5473.1
15016.5,5468.44
15020.4,5464.15
15024.7,5460.26
15029.3,5456.8
15034.3,5453.82
15039.5,5451.35
15045,5449.39
15050.6,5447.99
15056.4,5447.14
15062.1,5446.85
15180.3,5446.85
Z" /> 
<path style="fill:#000000; fill-opacity:1.0; 
stroke:#000000; stroke-width:0; stroke-opacity:1; 
stroke-linecap:round; stroke-linejoin:round;fill-rule:evenodd;"
d="M 14686,5447.14
14691.8,5447.99
14697.4,5449.39
14702.9,5451.35
14708.1,5453.82
14713.1,5456.8
14717.7,5460.26
14722,5464.15
14725.9,5468.44
14729.4,5473.1
14732.3,5478.07
14734.8,5483.31
14736.8,5488.76
14738.2,5494.38
14739,5500.12
14739.3,5505.91
14739.3,6194.88
14739,6200.67
14738.2,6206.4
14736.8,6212.03
14734.8,6217.48
14732.3,6222.72
14729.4,6227.69
14725.9,6232.35
14722,6236.64
14717.7,6240.53
14713.1,6243.98
14708.1,6246.96
14702.9,6249.44
14697.4,6251.39
14691.8,6252.8
14686,6253.65
14680.3,6253.94
14562.1,6253.94
14556.4,6253.65
14550.6,6252.8
14545,6251.39
14539.5,6249.44
14534.3,6246.96
14529.3,6243.98
14524.7,6240.53
14520.4,6236.64
14516.5,6232.35
14513,6227.69
14510.1,6222.72
14507.6,6217.48
14505.6,6212.03
14504.2,6206.4
14503.4,6200.67
14503.1,6194.88
14503.1,5505.91
14503.4,5500.12
14504.2,5494.38
14505.6,5488.76
14507.6,5483.31
14510.1,5478.07
14513,5473.1
14516.5,5468.44
14520.4,5464.15
14524.7,5460.26
14529.3,5456.8
14534.3,5453.82
14539.5,5451.35
14545,5449.39
14550.6,5447.99
14556.4,5447.14
14562.1,5446.85
14680.3,5446.85
Z" /> 
<path style="fill:#000000; fill-opacity:1.0; 
stroke:#000000; stroke-width:0; stroke-opacity:1; 
stroke-linecap:round; stroke-linejoin:round;fill-rule:evenodd;"
d="M 14186,5447.14
14191.8,5447.99
14197.4,5449.39
14202.9,5451.35
14208.1,5453.82
14213.1,5456.8
14217.7,5460.26
14222,5464.15
14225.9,5468.44
14229.4,5473.1
14232.3,5478.07
14234.8,5483.31
14236.8,5488.76
14238.2,5494.38
14239,5500.12
14239.3,5505.91
14239.3,6194.88
14239,6200.67
14238.2,6206.4
14236.8,6212.03
14234.8,6217.48
14232.3,6222.72
14229.4,6227.69
14225.9,6232.35
14222,6236.64
14217.7,6240.53
14213.1,6243.98
14208.1,6246.96
14202.9,6249.44
14197.4,6251.39
14191.8,6252.8
14186,6253.65
14180.3,6253.94
14062.1,6253.94
14056.4,6253.65
14050.6,6252.8
14045,6251.39
14039.5,6249.44
14034.3,6246.96
14029.3,6243.98
14024.7,6240.53
14020.4,6236.64
14016.5,6232.35
14013,6227.69
14010.1,6222.72
14007.6,6217.48
14005.6,6212.03
14004.2,6206.4
14003.4,6200.67
14003.1,6194.88
14003.1,5505.91
14003.4,5500.12
14004.2,5494.38
14005.6,5488.76
14007.6,5483.31
14010.1,5478.07
14013,5473.1
14016.5,5468.44
14020.4,5464.15
14024.7,5460.26
14029.3,5456.8
14034.3,5453.82
14039.5,5451.35
14045,5449.39
14050.6,5447.99
14056.4,5447.14
14062.1,5446.85
14180.3,5446.85
Z" /> 
</g>
<g >
</g>
<g style="fill:#000000; fill-opacity:1.0; 
stroke:#000000; stroke-width:0; stroke-opacity:1; 
stroke-linecap:round; stroke-linejoin:round;">
<circle cx="21121.2" cy="8019.69" r="334.646" /> 
<circle cx="21121.2" cy="7019.69" r="334.646" /> 
<circle cx="21121.2" cy="6019.69" r="334.646" /> 
<circle cx="21121.2" cy="5019.69" r="334.646" /> 
<circle cx="21121.2" cy="4019.69" r="334.646" /> 
<path style="fill:#000000; fill-opacity:1.0; 
stroke:#000000; stroke-width:0; stroke-opacity:1; 
stroke-linecap:round; stroke-linejoin:round;fill-rule:evenodd;"
d="M 20786.6,3354.33
20786.6,2685.04
21455.8,2685.04
21455.8,3354.33
Z" /> 
</g>
<g >
</g>
<g style="fill:#000000; fill-opacity:1.0; 
stroke:#000000; stroke-width:0; stroke-opacity:1; 
stroke-linecap:round; stroke-linejoin:round;">
<circle cx="4371.2" cy="4519.69" r="334.646" /> 
<circle cx="4371.2" cy="5519.69" r="334.646" /> 
<path style="fill:#000000; fill-opacity:1.0; 
stroke:#000000; stroke-width:0; stroke-opacity:1; 
stroke-linecap:round; stroke-linejoin:round;fill-rule:evenodd;"
d="M 4705.85,6185.04
4705.85,6854.33
4036.56,6854.33
4036.56,6185.04
Z" /> 
</g>
<g >
</g>
<g style="fill:#000000; fill-opacity:1.0; 
stroke:#000000; stroke-width:0; stroke-opacity:1; 
stroke-linecap:round; stroke-linejoin:round;">
<path style="fill:#000000; fill-opacity:1.0; 
stroke:#000000; stroke-width:0; stroke-opacity:1; 
stroke-linecap:round; stroke-linejoin:round;fill-rule:evenodd;"
d="M 9113.33,3649.61
9703.88,3649.61
9703.88,4633.86
9113.33,4633.86
Z" /> 
<path style="fill:#000000; fill-opacity:1.0; 
stroke:#000000; stroke-width:0; stroke-opacity:1; 
stroke-linecap:round; stroke-linejoin:round;fill-rule:evenodd;"
d="M 9113.33,6405.51
9703.88,6405.51
9703.88,7389.76
9113.33,7389.76
Z" /> 
<path style="fill:#000000; fill-opacity:1.0; 
stroke:#000000; stroke-width:0; stroke-opacity:1; 
stroke-linecap:round; stroke-linejoin:round;fill-rule:evenodd;"
d="M 7538.53,3649.61
8129.08,3649.61
8129.08,4633.86
7538.53,4633.86
Z" /> 
<path style="fill:#000000; fill-opacity:1.0; 
stroke:#000000; stroke-width:0; stroke-opacity:1; 
stroke-linecap:round; stroke-linejoin:round;fill-rule:evenodd;"
d="M 7538.53,6405.51
8129.08,6405.51
8129.08,7389.76
7538.53,7389.76
Z" /> 
</g>
<g >
</g>
<g style="fill:#000000; fill-opacity:1.0; 
stroke:#000000; stroke-width:0; stroke-opacity:1; 
stroke-linecap:round; stroke-linejoin:round;">
<path style="fill:#000000; fill-opacity:1.0; 
stroke:#000000; stroke-width:0; stroke-opacity:1; 
stroke-linecap:round; stroke-linejoin:round;fill-rule:evenodd;"
d="M 14402.7,7854.33
14402.7,7185.04
15190.1,7185.04
15190.1,7854.33
Z" /> 
<path style="fill:#000000; fill-opacity:1.0; 
stroke:#000000; stroke-width:0; stroke-opacity:1; 
stroke-linecap:round; stroke-linejoin:round;fill-rule:evenodd;"
d="M 15977.5,7854.33
15977.5,7185.04
16764.9,7185.04
16764.9,7854.33
Z" /> 
</g>
<g >
</g>
<g style="fill:#000000; fill-opacity:1.0; 
stroke:#000000; stroke-width:0; stroke-opacity:1; 
stroke-linecap:round; stroke-linejoin:round;">
<path style="fill:#000000; fill-opacity:1.0; 
stroke:#000000; stroke-width:0; stroke-opacity:1; 
stroke-linecap:round; stroke-linejoin:round;fill-rule:evenodd;"
d="M 10902.7,7854.33
10902.7,7185.04
11690.1,7185.04
11690.1,7854.33
Z" /> 
<path style="fill:#000000; fill-opacity:1.0; 
stroke:#000000; stroke-width:0; stroke-opacity:1; 
stroke-linecap:round; stroke-linejoin:round;fill-rule:evenodd;"
d="M 12477.5,7854.33
12477.5,7185.04
13264.9,7185.04
13264.9,7854.33
Z" /> 
</g>
<g >
</g>
<g style="fill:#000000; fill-opacity:1.0; 
stroke:#000000; stroke-width:0; stroke-opacity:1; 
stroke-linecap:round; stroke-linejoin:round;">
<path style="fill:#000000; fill-opacity:1.0; 
stroke:#000000; stroke-width:0; stroke-opacity:1; 
stroke-linecap:round; stroke-linejoin:round;fill-rule:evenodd;"
d="M 7652.7,2854.33
7652.7,2185.04
8440.1,2185.04
8440.1,2854.33
Z" /> 
<path style="fill:#000000; fill-opacity:1.0; 
stroke:#000000; stroke-width:0; stroke-opacity:1; 
stroke-linecap:round; stroke-linejoin:round;fill-rule:evenodd;"
d="M 9227.5,2854.33
9227.5,2185.04
10014.9,2185.04
10014.9,2854.33
Z" /> 
</g>
<g >
</g>
<g style="fill:#000000; fill-opacity:1.0; 
stroke:#000000; stroke-width:0; stroke-opacity:1; 
stroke-linecap:round; stroke-linejoin:round;">
<path style="fill:#000000; fill-opacity:1.0; 
stroke:#000000; stroke-width:0; stroke-opacity:1; 
stroke-linecap:round; stroke-linejoin:round;fill-rule:evenodd;"
d="M 14402.7,9354.33
14402.7,8685.04
15190.1,8685.04
15190.1,9354.33
Z" /> 
<path style="fill:#000000; fill-opacity:1.0; 
stroke:#000000; stroke-width:0; stroke-opacity:1; 
stroke-linecap:round; stroke-linejoin:round;fill-rule:evenodd;"
d="M 15977.5,9354.33
15977.5,8685.04
16764.9,8685.04
16764.9,9354.33
Z" /> 
</g>
<g >
</g>
<g style="fill:#000000; fill-opacity:1.0; 
stroke:#000000; stroke-width:0; stroke-opacity:1; 
stroke-linecap:round; stroke-linejoin:round;">
<path style="fill:#000000; fill-opacity:1.0; 
stroke:#000000; stroke-width:0; stroke-opacity:1; 
stroke-linecap:round; stroke-linejoin:round;fill-rule:evenodd;"
d="M 10902.7,9354.33
10902.7,8685.04
11690.1,8685.04
11690.1,9354.33
Z" /> 
<path style="fill:#000000; fill-opacity:1.0; 
stroke:#000000; stroke-width:0; stroke-opacity:1; 
stroke-linecap:round; stroke-linejoin:round;fill-rule:evenodd;"
d="M 12477.5,9354.33
12477.5,8685.04
13264.9,8685.04
13264.9,9354.33
Z" /> 
</g>
<g >
</g>
<g style="fill:#000000; fill-opacity:1.0; 
stroke:#000000; stroke-width:0; stroke-opacity:1; 
stroke-linecap:round; stroke-linejoin:round;">
<path style="fill:#000000; fill-opacity:1.0; 
stroke:#000000; stroke-width:0; stroke-opacity:1; 
stroke-linecap:round; stroke-linejoin:round;fill-rule:evenodd;"
d="M 12475.2,3533.19
11767.2,3533.19
11767.2,2904.19
12475.2,2904.19
Z" /> 
<path style="fill:#000000; fill-opacity:1.0; 
stroke:#000000; stroke-width:0; stroke-opacity:1; 
stroke-linecap:round; stroke-linejoin:round;fill-rule:evenodd;"
d="M 12475.2,4635.19
11767.2,4635.19
11767.2,4006.19
12475.2,4006.19
Z" /> 
</g>
<g >
</g>
<g >
</g>
<g style="fill:#000000; fill-opacity:1.0; 
stroke:#000000; stroke-width:0; stroke-opacity:1; 
stroke-linecap:round; stroke-linejoin:round;">
</g>
<g style="fill:#000000; fill-opacity:1.0; 
stroke:#000000; stroke-width:196.85; stroke-opacity:1; 
stroke-linecap:round; stroke-linejoin:round;">
</g>
<g style="fill:#000000; fill-opacity:0.0; 
stroke:#000000; stroke-width:196.85; stroke-opacity:1; 
stroke-linecap:round; stroke-linejoin:round;">
<path d="M8621 3519
L9621 2519
" />
<path d="M8621 8019
L8621 3519
" />
<path d="M6121 8019
L8621 8019
" />
<path d="M6121 5519
L6121 8019
" />
<path d="M4371 5519
L6121 5519
" />
<path d="M11422 2519
L12121 3218
" />
<path d="M9621 2519
L11422 2519
" />
<path d="M11296 9444
L11371 9519
" />
<path d="M11296 9019
L11296 9944
" />
<path d="M14796 9019
L14796 9944
" />
<path d="M3371 5519
L4371 5519
" />
<path d="M3371 10019
L3371 5519
" />
<path d="M14871 10019
L3371 10019
" />
<path d="M21121 3019
L20371 3019
" />
<path d="M19371 4019
L20371 3019
" />
<path d="M15121 4269
L14121 3269
" />
<path d="M14121 2188
L14121 3269
" />
<path d="M19371 4019
L19121 4269
" />
<path d="M15121 4269
L19121 4269
" />
<path d="M12172 3269
L12121 3218
" />
<path d="M14121 3269
L12172 3269
" />
</g>
<g style="fill:#000000; fill-opacity:0.0; 
stroke:#000000; stroke-width:98.4252; stroke-opacity:1; 
stroke-linecap:round; stroke-linejoin:round;">
<path d="M9371 6935
L9408 6897
" />
<path d="M9371 9019
L9371 6935
" />
</g>
<g style="fill:#000000; fill-opacity:0.0; 
stroke:#000000; stroke-width:196.85; stroke-opacity:1; 
stroke-linecap:round; stroke-linejoin:round;">
<path d="M9408 6897
L9408 8982
" />
<path d="M4371 9019
L4371 6519
" />
<path d="M9371 9019
L9408 8982
" />
<path d="M4371 9019
L9371 9019
" />
<path d="M9408 4141
L9408 6897
" />
<path d="M11942 4141
L12121 4320
" />
<path d="M9408 4141
L11942 4141
" />
<path d="M14121 5019
L14371 4769
" />
<path d="M14121 5850
L14121 5019
" />
<path d="M20621 5019
L20371 4769
" />
<path d="M21121 5019
L20621 5019
" />
<path d="M14371 4769
L20371 4769
" />
<path d="M12172 4269
L12121 4320
" />
<path d="M13871 4269
L12172 4269
" />
<path d="M14371 4769
L13871 4269
" />
<path d="M12871 7519
L12871 9019
" />
<path d="M16371 7519
L16371 9019
" />
<path d="M16121 1269
L16121 1938
" />
<path d="M16121 1019
L4371 1019
" />
<path d="M16121 2188
L16121 1019
" />
<path d="M4371 1019
L4371 1519
" />
<path d="M4371 1519
L4371 1269
" />
<path d="M4371 4519
L4371 1519
" />
<path d="M21621 7019
L21121 7019
" />
<path d="M15621 3019
L15621 2188
" />
<path d="M15871 3269
L15621 3019
" />
<path d="M18621 3269
L15871 3269
" />
<path d="M20621 1269
L18621 3269
" />
<path d="M22121 1269
L20621 1269
" />
<path d="M22621 1769
L22121 1269
" />
<path d="M22621 7019
L22621 1769
" />
<path d="M21371 7019
L22621 7019
" />
<path d="M21621 6019
L21121 6019
" />
<path d="M15121 3269
L15121 2188
" />
<path d="M15621 3769
L15121 3269
" />
<path d="M18871 3769
L15621 3769
" />
<path d="M20871 1769
L18871 3769
" />
<path d="M21621 1769
L20871 1769
" />
<path d="M22121 2269
L21621 1769
" />
<path d="M22121 6019
L22121 2269
" />
<path d="M21371 6019
L22121 6019
" />
<path d="M7833 6897
L7833 4141
" />
<path d="M8046 3929
L7833 4141
" />
<path d="M8046 2519
L8046 3929
" />
<path d="M14598 2166
L14621 2188
" />
<path d="M14598 1519
L14598 2166
" />
<path d="M8121 1519
L14598 1519
" />
<path d="M8046 1594
L8121 1519
" />
<path d="M8046 2519
L8046 1594
" />
<path d="M11296 7094
L11296 7519
" />
<path d="M11621 6769
L11296 7094
" />
<path d="M14871 6769
L11621 6769
" />
<path d="M15121 6519
L14871 6769
" />
<path d="M15121 5850
L15121 6519
" />
<path d="M14871 7519
L14796 7519
" />
<path d="M15621 6769
L14871 7519
" />
<path d="M15621 5850
L15621 6769
" />
</g>
<g >
</g>
</g>
<g style="fill:#FFFFFF; fill-opacity:0.0; 
stroke:#FFFFFF; stroke-width:196.85; stroke-opacity:1; 
stroke-linecap:round; stroke-linejoin:round;">
</g>
<g style="fill:#FFFFFF; fill-opacity:1.0; 
stroke:#FFFFFF; stroke-width:0; stroke-opacity:1; 
stroke-linecap:round; stroke-linejoin:round;">
<circle cx="21121.2" cy="8019.69" r="196.85" /> 
</g>
<g style="fill:#FFFFFF; fill-opacity:1.0; 
stroke:#FFFFFF; stroke-width:39.3701; stroke-opacity:1; 
stroke-linecap:round; stroke-linejoin:round;">
</g>
<g style="fill:#FFFFFF; fill-opacity:1.0; 
stroke:#FFFFFF; stroke-width:0; stroke-opacity:1; 
stroke-linecap:round; stroke-linejoin:round;">
<circle cx="21121.2" cy="7019.69" r="196.85" /> 
</g>
<g style="fill:#FFFFFF; fill-opacity:1.0; 
stroke:#FFFFFF; stroke-width:39.3701; stroke-opacity:1; 
stroke-linecap:round; stroke-linejoin:round;">
</g>
<g style="fill:#FFFFFF; fill-opacity:1.0; 
stroke:#FFFFFF; stroke-width:0; stroke-opacity:1; 
stroke-linecap:round; stroke-linejoin:round;">
<circle cx="21121.2" cy="6019.69" r="196.85" /> 
</g>
<g style="fill:#FFFFFF; fill-opacity:1.0; 
stroke:#FFFFFF; stroke-width:39.3701; stroke-opacity:1; 
stroke-linecap:round; stroke-linejoin:round;">
</g>
<g style="fill:#FFFFFF; fill-opacity:1.0; 
stroke:#FFFFFF; stroke-width:0; stroke-opacity:1; 
stroke-linecap:round; stroke-linejoin:round;">
<circle cx="21121.2" cy="5019.69" r="196.85" /> 
</g>
<g style="fill:#FFFFFF; fill-opacity:1.0; 
stroke:#FFFFFF; stroke-width:39.3701; stroke-opacity:1; 
stroke-linecap:round; stroke-linejoin:round;">
</g>
<g style="fill:#FFFFFF; fill-opacity:1.0; 
stroke:#FFFFFF; stroke-width:0; stroke-opacity:1; 
stroke-linecap:round; stroke-linejoin:round;">
<circle cx="21121.2" cy="4019.69" r="196.85" /> 
</g>
<g style="fill:#FFFFFF; fill-opacity:1.0; 
stroke:#FFFFFF; stroke-width:39.3701; stroke-opacity:1; 
stroke-linecap:round; stroke-linejoin:round;">
</g>
<g style="fill:#FFFFFF; fill-opacity:1.0; 
stroke:#FFFFFF; stroke-width:0; stroke-opacity:1; 
stroke-linecap:round; stroke-linejoin:round;">
<circle cx="21121.2" cy="3019.69" r="196.85" /> 
</g>
<g style="fill:#FFFFFF; fill-opacity:1.0; 
stroke:#FFFFFF; stroke-width:39.3701; stroke-opacity:1; 
stroke-linecap:round; stroke-linejoin:round;">
</g>
<g style="fill:#FFFFFF; fill-opacity:1.0; 
stroke:#FFFFFF; stroke-width:0; stroke-opacity:1; 
stroke-linecap:round; stroke-linejoin:round;">
<circle cx="4371.2" cy="4519.69" r="196.85" /> 
</g>
<g style="fill:#FFFFFF; fill-opacity:1.0; 
stroke:#FFFFFF; stroke-width:39.3701; stroke-opacity:1; 
stroke-linecap:round; stroke-linejoin:round;">
</g>
<g style="fill:#FFFFFF; fill-opacity:1.0; 
stroke:#FFFFFF; stroke-width:0; stroke-opacity:1; 
stroke-linecap:round; stroke-linejoin:round;">
<circle cx="4371.2" cy="5519.69" r="196.85" /> 
</g>
<g style="fill:#FFFFFF; fill-opacity:1.0; 
stroke:#FFFFFF; stroke-width:39.3701; stroke-opacity:1; 
stroke-linecap:round; stroke-linejoin:round;">
</g>
<g style="fill:#FFFFFF; fill-opacity:1.0; 
stroke:#FFFFFF; stroke-width:0; stroke-opacity:1; 
stroke-linecap:round; stroke-linejoin:round;">
<circle cx="4371.2" cy="6519.69" r="196.85" /> 
</g>
<g style="fill:#FFFFFF; fill-opacity:1.0; 
stroke:#FFFFFF; stroke-width:39.3701; stroke-opacity:1; 
stroke-linecap:round; stroke-linejoin:round;">
</g>
<g style="fill:#000000; fill-opacity:1.0; 
stroke:#000000; stroke-width:39.3701; stroke-opacity:1; 
stroke-linecap:round; stroke-linejoin:round;">
</g> 
</svg>
