%TF.GenerationSoftware,KiCad,Pcbnew,(5.1.9)-1*%
%TF.CreationDate,2021-02-16T10:35:30-05:00*%
%TF.ProjectId,Blinkbutton1616,426c696e-6b62-4757-9474-6f6e31363136,rev?*%
%TF.SameCoordinates,Original*%
%TF.FileFunction,Soldermask,Top*%
%TF.FilePolarity,Negative*%
%FSLAX46Y46*%
G04 Gerber Fmt 4.6, Leading zero omitted, Abs format (unit mm)*
G04 Created by KiCad (PCBNEW (5.1.9)-1) date 2021-02-16 10:35:30*
%MOMM*%
%LPD*%
G01*
G04 APERTURE LIST*
%ADD10O,1.700000X1.700000*%
%ADD11R,1.700000X1.700000*%
%ADD12R,1.500000X2.500000*%
%ADD13R,2.000000X1.700000*%
%ADD14R,1.798320X1.597660*%
G04 APERTURE END LIST*
%TO.C,U1*%
G36*
G01*
X140485000Y-114485000D02*
X140185000Y-114485000D01*
G75*
G02*
X140035000Y-114335000I0J150000D01*
G01*
X140035000Y-112585000D01*
G75*
G02*
X140185000Y-112435000I150000J0D01*
G01*
X140485000Y-112435000D01*
G75*
G02*
X140635000Y-112585000I0J-150000D01*
G01*
X140635000Y-114335000D01*
G75*
G02*
X140485000Y-114485000I-150000J0D01*
G01*
G37*
G36*
G01*
X141755000Y-114485000D02*
X141455000Y-114485000D01*
G75*
G02*
X141305000Y-114335000I0J150000D01*
G01*
X141305000Y-112585000D01*
G75*
G02*
X141455000Y-112435000I150000J0D01*
G01*
X141755000Y-112435000D01*
G75*
G02*
X141905000Y-112585000I0J-150000D01*
G01*
X141905000Y-114335000D01*
G75*
G02*
X141755000Y-114485000I-150000J0D01*
G01*
G37*
G36*
G01*
X143025000Y-114485000D02*
X142725000Y-114485000D01*
G75*
G02*
X142575000Y-114335000I0J150000D01*
G01*
X142575000Y-112585000D01*
G75*
G02*
X142725000Y-112435000I150000J0D01*
G01*
X143025000Y-112435000D01*
G75*
G02*
X143175000Y-112585000I0J-150000D01*
G01*
X143175000Y-114335000D01*
G75*
G02*
X143025000Y-114485000I-150000J0D01*
G01*
G37*
G36*
G01*
X144295000Y-114485000D02*
X143995000Y-114485000D01*
G75*
G02*
X143845000Y-114335000I0J150000D01*
G01*
X143845000Y-112585000D01*
G75*
G02*
X143995000Y-112435000I150000J0D01*
G01*
X144295000Y-112435000D01*
G75*
G02*
X144445000Y-112585000I0J-150000D01*
G01*
X144445000Y-114335000D01*
G75*
G02*
X144295000Y-114485000I-150000J0D01*
G01*
G37*
G36*
G01*
X145565000Y-114485000D02*
X145265000Y-114485000D01*
G75*
G02*
X145115000Y-114335000I0J150000D01*
G01*
X145115000Y-112585000D01*
G75*
G02*
X145265000Y-112435000I150000J0D01*
G01*
X145565000Y-112435000D01*
G75*
G02*
X145715000Y-112585000I0J-150000D01*
G01*
X145715000Y-114335000D01*
G75*
G02*
X145565000Y-114485000I-150000J0D01*
G01*
G37*
G36*
G01*
X146835000Y-114485000D02*
X146535000Y-114485000D01*
G75*
G02*
X146385000Y-114335000I0J150000D01*
G01*
X146385000Y-112585000D01*
G75*
G02*
X146535000Y-112435000I150000J0D01*
G01*
X146835000Y-112435000D01*
G75*
G02*
X146985000Y-112585000I0J-150000D01*
G01*
X146985000Y-114335000D01*
G75*
G02*
X146835000Y-114485000I-150000J0D01*
G01*
G37*
G36*
G01*
X148105000Y-114485000D02*
X147805000Y-114485000D01*
G75*
G02*
X147655000Y-114335000I0J150000D01*
G01*
X147655000Y-112585000D01*
G75*
G02*
X147805000Y-112435000I150000J0D01*
G01*
X148105000Y-112435000D01*
G75*
G02*
X148255000Y-112585000I0J-150000D01*
G01*
X148255000Y-114335000D01*
G75*
G02*
X148105000Y-114485000I-150000J0D01*
G01*
G37*
G36*
G01*
X149375000Y-114485000D02*
X149075000Y-114485000D01*
G75*
G02*
X148925000Y-114335000I0J150000D01*
G01*
X148925000Y-112585000D01*
G75*
G02*
X149075000Y-112435000I150000J0D01*
G01*
X149375000Y-112435000D01*
G75*
G02*
X149525000Y-112585000I0J-150000D01*
G01*
X149525000Y-114335000D01*
G75*
G02*
X149375000Y-114485000I-150000J0D01*
G01*
G37*
G36*
G01*
X150645000Y-114485000D02*
X150345000Y-114485000D01*
G75*
G02*
X150195000Y-114335000I0J150000D01*
G01*
X150195000Y-112585000D01*
G75*
G02*
X150345000Y-112435000I150000J0D01*
G01*
X150645000Y-112435000D01*
G75*
G02*
X150795000Y-112585000I0J-150000D01*
G01*
X150795000Y-114335000D01*
G75*
G02*
X150645000Y-114485000I-150000J0D01*
G01*
G37*
G36*
G01*
X151915000Y-114485000D02*
X151615000Y-114485000D01*
G75*
G02*
X151465000Y-114335000I0J150000D01*
G01*
X151465000Y-112585000D01*
G75*
G02*
X151615000Y-112435000I150000J0D01*
G01*
X151915000Y-112435000D01*
G75*
G02*
X152065000Y-112585000I0J-150000D01*
G01*
X152065000Y-114335000D01*
G75*
G02*
X151915000Y-114485000I-150000J0D01*
G01*
G37*
G36*
G01*
X151915000Y-123785000D02*
X151615000Y-123785000D01*
G75*
G02*
X151465000Y-123635000I0J150000D01*
G01*
X151465000Y-121885000D01*
G75*
G02*
X151615000Y-121735000I150000J0D01*
G01*
X151915000Y-121735000D01*
G75*
G02*
X152065000Y-121885000I0J-150000D01*
G01*
X152065000Y-123635000D01*
G75*
G02*
X151915000Y-123785000I-150000J0D01*
G01*
G37*
G36*
G01*
X150645000Y-123785000D02*
X150345000Y-123785000D01*
G75*
G02*
X150195000Y-123635000I0J150000D01*
G01*
X150195000Y-121885000D01*
G75*
G02*
X150345000Y-121735000I150000J0D01*
G01*
X150645000Y-121735000D01*
G75*
G02*
X150795000Y-121885000I0J-150000D01*
G01*
X150795000Y-123635000D01*
G75*
G02*
X150645000Y-123785000I-150000J0D01*
G01*
G37*
G36*
G01*
X149375000Y-123785000D02*
X149075000Y-123785000D01*
G75*
G02*
X148925000Y-123635000I0J150000D01*
G01*
X148925000Y-121885000D01*
G75*
G02*
X149075000Y-121735000I150000J0D01*
G01*
X149375000Y-121735000D01*
G75*
G02*
X149525000Y-121885000I0J-150000D01*
G01*
X149525000Y-123635000D01*
G75*
G02*
X149375000Y-123785000I-150000J0D01*
G01*
G37*
G36*
G01*
X148105000Y-123785000D02*
X147805000Y-123785000D01*
G75*
G02*
X147655000Y-123635000I0J150000D01*
G01*
X147655000Y-121885000D01*
G75*
G02*
X147805000Y-121735000I150000J0D01*
G01*
X148105000Y-121735000D01*
G75*
G02*
X148255000Y-121885000I0J-150000D01*
G01*
X148255000Y-123635000D01*
G75*
G02*
X148105000Y-123785000I-150000J0D01*
G01*
G37*
G36*
G01*
X146835000Y-123785000D02*
X146535000Y-123785000D01*
G75*
G02*
X146385000Y-123635000I0J150000D01*
G01*
X146385000Y-121885000D01*
G75*
G02*
X146535000Y-121735000I150000J0D01*
G01*
X146835000Y-121735000D01*
G75*
G02*
X146985000Y-121885000I0J-150000D01*
G01*
X146985000Y-123635000D01*
G75*
G02*
X146835000Y-123785000I-150000J0D01*
G01*
G37*
G36*
G01*
X145565000Y-123785000D02*
X145265000Y-123785000D01*
G75*
G02*
X145115000Y-123635000I0J150000D01*
G01*
X145115000Y-121885000D01*
G75*
G02*
X145265000Y-121735000I150000J0D01*
G01*
X145565000Y-121735000D01*
G75*
G02*
X145715000Y-121885000I0J-150000D01*
G01*
X145715000Y-123635000D01*
G75*
G02*
X145565000Y-123785000I-150000J0D01*
G01*
G37*
G36*
G01*
X144295000Y-123785000D02*
X143995000Y-123785000D01*
G75*
G02*
X143845000Y-123635000I0J150000D01*
G01*
X143845000Y-121885000D01*
G75*
G02*
X143995000Y-121735000I150000J0D01*
G01*
X144295000Y-121735000D01*
G75*
G02*
X144445000Y-121885000I0J-150000D01*
G01*
X144445000Y-123635000D01*
G75*
G02*
X144295000Y-123785000I-150000J0D01*
G01*
G37*
G36*
G01*
X143025000Y-123785000D02*
X142725000Y-123785000D01*
G75*
G02*
X142575000Y-123635000I0J150000D01*
G01*
X142575000Y-121885000D01*
G75*
G02*
X142725000Y-121735000I150000J0D01*
G01*
X143025000Y-121735000D01*
G75*
G02*
X143175000Y-121885000I0J-150000D01*
G01*
X143175000Y-123635000D01*
G75*
G02*
X143025000Y-123785000I-150000J0D01*
G01*
G37*
G36*
G01*
X141755000Y-123785000D02*
X141455000Y-123785000D01*
G75*
G02*
X141305000Y-123635000I0J150000D01*
G01*
X141305000Y-121885000D01*
G75*
G02*
X141455000Y-121735000I150000J0D01*
G01*
X141755000Y-121735000D01*
G75*
G02*
X141905000Y-121885000I0J-150000D01*
G01*
X141905000Y-123635000D01*
G75*
G02*
X141755000Y-123785000I-150000J0D01*
G01*
G37*
G36*
G01*
X140485000Y-123785000D02*
X140185000Y-123785000D01*
G75*
G02*
X140035000Y-123635000I0J150000D01*
G01*
X140035000Y-121885000D01*
G75*
G02*
X140185000Y-121735000I150000J0D01*
G01*
X140485000Y-121735000D01*
G75*
G02*
X140635000Y-121885000I0J-150000D01*
G01*
X140635000Y-123635000D01*
G75*
G02*
X140485000Y-123785000I-150000J0D01*
G01*
G37*
%TD*%
D10*
%TO.C,J2*%
X158115000Y-128270000D03*
X158115000Y-125730000D03*
X158115000Y-123190000D03*
X158115000Y-120650000D03*
X158115000Y-118110000D03*
D11*
X158115000Y-115570000D03*
%TD*%
D10*
%TO.C,J1*%
X115570000Y-119380000D03*
X115570000Y-121920000D03*
D11*
X115570000Y-124460000D03*
%TD*%
D12*
%TO.C,SW1*%
X128365000Y-118420000D03*
X128365000Y-125420000D03*
X124365000Y-118420000D03*
X124365000Y-125420000D03*
%TD*%
D13*
%TO.C,R3*%
X142050000Y-127000000D03*
X146050000Y-127000000D03*
%TD*%
%TO.C,R2*%
X133160000Y-127000000D03*
X137160000Y-127000000D03*
%TD*%
%TO.C,R1*%
X124905000Y-114300000D03*
X128905000Y-114300000D03*
%TD*%
%TO.C,D2*%
X142050000Y-130810000D03*
X146050000Y-130810000D03*
%TD*%
%TO.C,D1*%
X133160000Y-130810000D03*
X137160000Y-130810000D03*
%TD*%
D14*
%TO.C,C1*%
X135255000Y-116075460D03*
X135255000Y-118874540D03*
%TD*%
M02*
